<svg width="90" height="90" fill="none" xmlns="http://www.w3.org/2000/svg"><path d="M85 27.393a8 8 0 0 0-4.35-7.118L50.477 4.799a12 12 0 0 0-10.952 0L9.349 20.275A7.994 7.994 0 0 0 5 27.389v35.942c0 2.9 1.57 5.561 4.101 6.975l32 17.86a8 8 0 0 0 7.798 0l32-17.86A8 8 0 0 0 85 63.32V27.393z" fill="#5D9948"/><path d="M45 47.685a8 8 0 0 0-4.306-7.096L9.385 24.29C7.388 23.248 5 24.692 5 26.944v36.388c0 2.9 1.57 5.56 4.101 6.973l31.437 17.546c2 1.116 4.462-.33 4.462-2.62V47.685z" fill="#81B64C"/><path d="M45.01 47.685a8 8 0 0 1 4.306-7.096l31.309-16.3c1.997-1.04 4.385.404 4.385 2.656v36.388c0 2.9-1.569 5.56-4.1 6.973L49.471 87.852c-2 1.116-4.462-.33-4.462-2.62V47.685z" fill="#45753C"/><path d="M70.758 15.201 50.477 4.8a12 12 0 0 0-10.952 0L19.24 15.201 41.74 5.159a8 8 0 0 1 6.522 0L70.758 15.2z" fill="#81B64C"/><path d="M9.54 69.205a8 8 0 0 1-3.634-6.044L5 52.505V63.32a8 8 0 0 0 4.101 6.986l15.9 8.874-15.46-9.975z" fill="#B2E068"/><path d="M80.47 69.205a8 8 0 0 0 3.634-6.044l.906-10.656V63.32a8 8 0 0 1-4.1 6.986l-15.9 8.874 15.46-9.975z" fill="#5D9948"/><path fill-rule="evenodd" clip-rule="evenodd" d="m35.998 21.215 10.283-5.17c1.1-1.061.54-1.901-.46-2.572l-3.911-2.33c-1.25.19-2.351.51-3.291.99l2.16 1.81-2.26 1.14-3.721-1.5s-1.1.4-1.91.8c-.81.4-1.601.96-1.601.96l2.91 1.911-2.26 1.14-3.54-1.12c-.941.47-1.601 1.03-1.981 1.66l4.53 2.011c1.311.51 2.942.81 5.042.26l.01.01zm5.414 4.097c-1.394-1.053-3.081-2.328-4.404-3.277v-.01l10.863-5.46c1.895.703 4.45 1.6 6.529 2.33 1.673.588 3.04 1.067 3.503 1.25L43.92 27.177c-.362-.243-1.33-.975-2.508-1.865zM34.648 74.18 15.853 63.836l-.02-.01c0-2.4.92-3.851 2.53-3.991 4.183-.352 4.436-3.028 4.537-4.094l.015-.147.02-1.15-2.65-1.46c-.3-.74-.461-1.481-.461-2.151l3.1-.22-.23-.29c-1.24-1.54-1.98-3.361-1.98-4.882 0-2.52 2.03-3.46 4.531-2.08s4.531 4.551 4.531 7.072c0 1.52-.74 2.53-1.98 2.7l-.23.03 3.1 3.631c0 .66-.15 1.23-.46 1.64l-2.66-1.46.02 1.18.018.185c.11 1.191.385 4.143 4.533 9.058 1.61 1.91 2.53 4.381 2.53 6.782zM46.94 26.977l10.512-5.281c5.242-2.641 9.343-.5 9.343-.5l1.74.89-20.945 10.532-1.74-.89s-4.151-2.11 1.09-4.751zm11.843 32.878c.261-.408.447-.82.63-1.225.426-.941.833-1.839 2.12-2.546 1.42-.78 2.681-2.84 3.391-4.011l.7-1.25c.27.2 1.03.91.69 2.34-.1.44-.26.87-.47 1.31-.38.79-.91 1.601-1.54 2.491-.23.323-.488.666-.76 1.028-1.334 1.771-3.005 3.99-3.22 6.414l12.982-7.032c.07-.4.24-1.055.442-1.834.457-1.767 1.079-4.17 1.079-5.678 0-8.202-5.181-8.992-9.813-6.821l-2.37-1.24c-.34.18-.68.75-.77 1.22l-.27 1.52c-.27.86-.73 1.59-1.43 2.59-.664.949-.86 1.609-1.007 2.101l-.024.08c-.16.523-.277.963-.387 1.374-.268 1.003-.49 1.83-1.164 3.258l-2.14 4.38c-.55 1.03-.48 1.981.11 2.201.78.29 3.03-.34 3.23-.65l-.01-.02zm2.46 5.421 10.343-5.601h-.01c5.161-2.79 5.141 1.58 5.141 1.58v1.84L56.103 74.26v-1.84s-.02-4.352 5.141-7.143z" fill="#fff"/></svg>